<svg width="32" height="32" viewBox="0 0 32 32" fill="none" xmlns="http://www.w3.org/2000/svg">
<path d="M15.712 0.0195236C15.1549 0.161575 15.0735 0.232599 7.68698 7.21255C1.79655 12.7784 0.281689 14.2441 0.156494 14.4895C0.0375585 14.7284 0 14.8898 0 15.2191C0.00625976 15.7615 0.143974 16.0327 0.701093 16.588C1.0579 16.9367 1.20187 17.04 1.50234 17.1239C1.90297 17.2466 2.29107 17.2208 2.60406 17.0529C2.71047 17.0013 3.0485 16.7236 3.34897 16.4395C3.6557 16.1619 3.91861 15.9294 3.93739 15.9294C3.95617 15.9294 3.97495 19.2095 3.97495 23.2128C3.97495 31.3227 3.95617 30.9289 4.39435 31.4325C4.51954 31.5746 4.73864 31.7554 4.87635 31.8328C5.12674 31.9749 5.18934 31.9749 8.18776 31.9943C10.8356 32.0072 11.2926 32.0007 11.5868 31.9103C12.0062 31.7876 12.3943 31.439 12.5759 31.0386C12.7073 30.7545 12.7073 30.6706 12.7261 25.4663L12.7449 20.191L16.2941 20.2039L19.8434 20.2233L19.8747 25.5825C19.9123 31.5616 19.8747 31.1032 20.3567 31.5875C20.7761 32.0072 20.845 32.0136 24.4569 31.9943C28.0687 31.9749 27.906 31.9943 28.3943 31.4777C28.8512 30.9934 28.8262 31.4519 28.8262 23.3743C28.8262 19.3839 28.8512 16.1231 28.8763 16.1231C28.9076 16.1231 28.9952 16.1941 29.0766 16.2845C29.5461 16.8011 29.9467 16.8979 30.4975 16.6268C30.8481 16.4589 31.568 15.7357 31.8121 15.2966C32.0562 14.8769 32.0625 14.2248 31.8309 13.8051C31.7119 13.5855 29.9216 11.9326 24.363 6.91553C20.1189 3.08011 16.9326 0.251972 16.7761 0.17449C16.5007 0.0388927 15.9561 -0.0385895 15.712 0.0195236Z" fill="white"/>
</svg>
