<svg width="32" height="32" viewBox="0 0 32 32" fill="none" xmlns="http://www.w3.org/2000/svg">
<path d="M14.4788 0.0401382C9.47227 0.559937 5.08532 3.28419 2.41935 7.53025C-0.628365 12.3775 -0.809851 18.659 1.94999 23.6753C2.68219 25.0093 3.5333 26.1491 4.64099 27.2638C5.96145 28.604 7.27566 29.5497 8.97162 30.3826C10.5987 31.178 12.157 31.6539 14.0407 31.9232C14.7854 32.0297 17.2449 32.0234 18.0146 31.917C21.9009 31.3784 25.199 29.6624 27.8462 26.7941C30.0365 24.4143 31.4321 21.3895 31.9202 17.9763C32.0266 17.2373 32.0266 14.7699 31.9202 14.0309C31.551 11.4256 30.7249 9.2149 29.3544 7.14823C28.7786 6.27146 28.1966 5.55752 27.3831 4.73711C24.8861 2.20701 21.7945 0.647614 18.2337 0.121552C17.4639 0.0088253 15.2423 -0.041275 14.4788 0.0401382ZM18.4339 3.87913C20.1236 4.2361 21.6694 4.88742 22.946 5.77045C23.1651 5.92075 23.3591 6.04601 23.3779 6.04601C23.3966 6.04601 23.3966 5.7955 23.3841 5.48237L23.3528 4.92499L24.2728 4.90621L25.199 4.88742L25.2365 5.10661C25.2553 5.2256 25.2741 6.15873 25.2741 7.18581V9.03955L24.9799 9.07712C24.3979 9.15227 21.1875 9.42783 21.1687 9.40904C21.1562 9.39652 21.1124 9.07712 21.0811 8.70136C21.0436 8.32561 21.006 7.91854 20.9872 7.78702L20.956 7.56156L21.4879 7.51772C21.782 7.49268 22.0198 7.4551 22.0198 7.43005C22.0198 7.36742 21.2376 6.89772 20.6118 6.59086C19.8921 6.22762 19.1661 5.97712 18.2274 5.75792C17.5265 5.58883 17.4013 5.58257 16.0433 5.57631C14.7854 5.57631 14.5226 5.59509 13.9656 5.72035C11.9192 6.17126 10.192 7.07934 8.73381 8.48217L8.02664 9.1648L7.33199 8.56985L6.63107 7.96864L6.86263 7.68682C7.16302 7.31106 8.18309 6.40924 8.80265 5.96459C10.1544 4.99388 11.7815 4.26742 13.4149 3.92297C14.4412 3.69752 14.7917 3.67247 16.2624 3.69752C17.4827 3.7163 17.7706 3.74136 18.4339 3.87913ZM21.7069 11.7262C21.7069 11.7575 21.0373 13.6927 20.2112 16.0349L18.7218 20.2935L17.9395 20.3123L17.1573 20.3311L18.6655 16.0036L20.1737 11.6824H20.9434C21.3627 11.6824 21.7069 11.7012 21.7069 11.7262ZM8.5711 12.9725C9.04046 13.1165 9.30956 13.2606 9.59117 13.5361C9.9604 13.8931 10.0981 14.2501 10.0981 14.845C10.0981 15.5965 9.89156 15.9723 9.02168 16.8303C8.65245 17.1935 8.23316 17.588 8.10174 17.7008L7.85767 17.9137L9.07175 17.945L10.2858 17.9763V18.6965V19.4167L7.80135 19.4355L5.31061 19.448L5.31687 18.8406V18.2268L6.60604 17.0369C8.01412 15.7343 8.25193 15.4462 8.25193 15.0141C8.25193 14.6634 8.16432 14.5131 7.90773 14.4004C7.46341 14.2187 6.92521 14.3315 6.5372 14.6884L6.27436 14.9327L5.63603 14.5757C5.28558 14.3816 4.9977 14.1812 4.9977 14.1373C4.9977 13.9933 5.64855 13.3921 5.98649 13.223C6.16797 13.129 6.46211 13.0163 6.64359 12.9662C7.10044 12.8472 8.14554 12.8472 8.5711 12.9725ZM15.5364 13.1666C15.4801 13.2668 14.9169 14.0747 14.291 14.9703C13.6715 15.8658 13.1395 16.6361 13.1145 16.6737C13.077 16.7363 13.2146 16.7551 13.7215 16.7551H14.3849V16.1915V15.6278H15.2298H16.0746V16.1915V16.7551H16.5753H17.0822L17.0634 17.4565L17.0446 18.1642L16.5627 18.183L16.0746 18.2018V18.8218V19.448H15.1985H14.3223V18.8218V18.1955H12.6013H10.8804V17.6131V17.0369L12.3322 15.0141L13.7841 12.9975H14.7166H15.6491L15.5364 13.1666ZM27.0889 13.5424L27.0827 14.0935L25.9437 16.7551L24.7984 19.4167L23.8159 19.4355C23.2777 19.4418 22.8334 19.4355 22.8334 19.4105C22.8334 19.3917 23.3028 18.2957 23.8722 16.9806C24.4417 15.6717 24.9236 14.5569 24.9424 14.5131C24.9674 14.4567 24.7797 14.4379 24.1226 14.4379H23.2715V14.9389V15.4462L22.508 15.4274L21.7382 15.4086L21.7194 14.2L21.7069 12.9975H24.3979H27.0889V13.5424ZM10.8991 22.8424C10.9242 22.9927 10.9554 23.3371 10.9742 23.6127C10.993 23.8883 11.0243 24.1889 11.0431 24.2828L11.0744 24.4456L10.5424 24.4895C10.2483 24.5145 10.0042 24.5521 10.0042 24.5771C10.0042 24.6398 10.774 25.0969 11.4123 25.4163C12.1382 25.7796 12.8642 26.0301 13.7966 26.2493C14.4976 26.4184 14.6227 26.4309 15.9807 26.4246C17.2386 26.4246 17.5015 26.4121 18.071 26.2868C20.1111 25.8422 21.8509 24.9153 23.3028 23.5062L23.9974 22.8361L24.6983 23.4373L25.3992 24.0323L25.0801 24.4018C24.6921 24.8464 23.8222 25.6105 23.1338 26.099C21.7445 27.101 20.1048 27.7899 18.2462 28.1656C17.6329 28.2909 17.3575 28.3097 16.012 28.3097C14.6728 28.3097 14.3912 28.2909 13.7779 28.1656C12.0256 27.8149 10.3609 27.126 9.07801 26.2367C8.85897 26.0864 8.66497 25.9612 8.6462 25.9612C8.62742 25.9612 8.62742 26.2117 8.63994 26.5248L8.67123 27.0822L7.75128 27.101L6.82508 27.1198L6.78753 26.9006C6.76875 26.7816 6.74998 25.8422 6.74998 24.8151C6.74998 23.3685 6.76875 22.9551 6.83134 22.9489C6.86888 22.9489 7.72625 22.8674 8.72129 22.7735C9.7226 22.6733 10.6113 22.5919 10.6989 22.5856C10.8491 22.5794 10.8678 22.6044 10.8991 22.8424Z" fill="white"/>
</svg>
